<svg width="99" height="80" viewBox="0 0 99 80" fill="none" xmlns="http://www.w3.org/2000/svg">
<path d="M65.605 36.114L61.8489 47.5038C61.8489 47.5038 67.4136 45.698 72.839 38.1974L67.9699 35.2807C67.1352 34.725 66.0224 35.1416 65.605 36.114Z" fill="#00568A"/>
<path d="M45.5727 32.3637C45.9899 32.3637 46.2683 32.3637 46.6855 32.0857C48.4941 30.6969 56.4235 24.7241 58.9277 19.8626C61.7098 14.1676 62.8228 6.80589 61.9882 4.30566C61.9882 4.30566 49.746 8.7505 41.9557 22.9184C41.9557 23.0573 41.3992 31.808 45.5727 32.3637Z" fill="#00568A"/>
<path d="M53.6409 58.7548C52.3888 59.0325 51.1369 59.0325 49.8848 59.0325C36.2517 59.0325 25.2616 45.8371 25.2616 29.5857C25.2616 15.4178 33.4693 3.61126 44.5985 0.694336C42.3727 4.30576 34.304 15.0011 36.8079 34.8639C39.0338 53.0598 51.5541 58.0603 53.6409 58.7548Z" fill="#595A5A"/>
<path d="M72.9781 39.5866C70.0567 49.4485 62.8229 56.9492 53.9196 58.7548C51.9719 58.0603 39.4516 53.06 37.0867 35.0027C37.2257 36.2529 39.869 49.0317 54.7542 49.8651C63.5185 50.2819 70.3351 43.059 72.9781 39.5866Z" fill="#00B8AF"/>
<path d="M61.8483 3.75032C59.0659 4.86153 42.3723 12.5011 37.086 34.3085C36.8076 31.9473 36.6686 29.586 36.6686 27.5024C36.6686 12.3622 42.9286 3.75032 44.8763 0.555603C46.5456 0.138901 48.0759 0 49.8845 0C54.1968 0 58.2313 1.38901 61.8483 3.75032Z" fill="#00B8AF"/>
<path d="M3.71769 71.1142C3.28186 71.1142 2.94289 71.2505 2.70076 71.5231C2.46303 71.7955 2.31335 72.1646 2.25172 72.6306H5.17707C5.14624 72.1341 4.99437 71.7583 4.72141 71.5032C4.45288 71.2439 4.1183 71.1142 3.71769 71.1142ZM3.71769 69.5649C4.31641 69.5649 4.85568 69.6767 5.33555 69.9009C5.81539 70.1251 6.21159 70.479 6.52417 70.9626C6.80591 71.3888 6.98861 71.8834 7.07225 72.4462C7.12068 72.7758 7.14048 73.2505 7.13168 73.8701H2.2055C2.23191 74.5911 2.45863 75.0966 2.88566 75.3868C3.14539 75.5669 3.45795 75.6571 3.82335 75.6571C4.21075 75.6571 4.52552 75.547 4.76765 75.3274C4.8997 75.2087 5.01636 75.0439 5.11764 74.8329H7.03923C6.9908 75.2591 6.7685 75.6923 6.37227 76.1318C5.75597 76.8306 4.89312 77.1802 3.78372 77.1802C2.86805 77.1802 2.06022 76.8856 1.36025 76.2966C0.660286 75.7076 0.310303 74.7493 0.310303 73.4219C0.310303 72.1779 0.625068 71.224 1.2546 70.5603C1.88853 69.8966 2.70957 69.5649 3.71769 69.5649ZM11.924 73.9427C11.9856 74.3868 12.1066 74.7185 12.2871 74.9384C12.6173 75.3384 13.183 75.5384 13.9842 75.5384C14.4641 75.5384 14.8537 75.4856 15.153 75.3802C15.7209 75.1779 16.0049 74.8021 16.0049 74.2525C16.0049 73.9318 15.864 73.6834 15.5823 73.5076C15.3005 73.3361 14.8581 73.1845 14.255 73.0525L13.2248 72.8219C12.2123 72.5934 11.5123 72.345 11.1249 72.0767C10.469 71.6286 10.141 70.9274 10.141 69.9735C10.141 69.1032 10.458 68.3802 11.0919 67.8044C11.7259 67.2286 12.6569 66.9407 13.8852 66.9407C14.9109 66.9407 15.7848 67.213 16.5068 67.7582C17.2331 68.2989 17.6139 69.0856 17.6492 70.1185H15.6945C15.6593 69.534 15.404 69.1185 14.9285 68.8724C14.6116 68.7098 14.2176 68.6286 13.7465 68.6286C13.2226 68.6286 12.8044 68.7341 12.4918 68.945C12.1793 69.156 12.023 69.4505 12.023 69.8286C12.023 70.1758 12.1771 70.4352 12.4853 70.6064C12.6833 70.7208 13.106 70.8548 13.7531 71.0087L15.4304 71.411C16.1656 71.5868 16.7203 71.8219 17.0945 72.1165C17.6756 72.5735 17.9661 73.2349 17.9661 74.1009C17.9661 74.9888 17.625 75.7274 16.9426 76.3165C16.2646 76.9009 15.3049 77.1932 14.0635 77.1932C12.7956 77.1932 11.7985 76.9053 11.0721 76.3295C10.3457 75.7493 9.98254 74.9537 9.98254 73.9427H11.924ZM25.1819 69.5712C25.6265 69.5712 26.0294 69.6482 26.3902 69.8021C26.7556 69.956 27.0551 70.1911 27.2884 70.5076C27.4864 70.7758 27.6076 71.0528 27.6515 71.3384C27.6956 71.6197 27.7176 72.0813 27.7176 72.7231V76.9427H25.7959V72.5713C25.7959 72.1845 25.7301 71.8724 25.5979 71.6349C25.4262 71.3009 25.1004 71.134 24.6206 71.134C24.1231 71.134 23.7445 71.3009 23.4848 71.6349C23.2294 71.9646 23.1018 72.4372 23.1018 73.0525V76.9427H21.2264V67.2571H23.1018V70.6923C23.3747 70.2747 23.6895 69.9845 24.0461 69.8219C24.4071 69.6548 24.7857 69.5712 25.1819 69.5712ZM35.3427 73.4482C35.2238 73.5228 35.1029 73.5845 34.9796 73.6329C34.8607 73.6767 34.6956 73.7185 34.4844 73.758L34.0618 73.8372C33.6655 73.9076 33.3815 73.9934 33.2098 74.0943C32.9192 74.2658 32.774 74.5318 32.774 74.8923C32.774 75.213 32.862 75.4459 33.0381 75.5911C33.2187 75.7318 33.4366 75.8021 33.6918 75.8021C34.097 75.8021 34.4688 75.6834 34.8079 75.4459C35.1514 75.2087 35.3295 74.7756 35.3427 74.147V73.4482ZM34.2004 72.5713C34.5481 72.5274 34.7969 72.4724 34.9465 72.4064C35.2152 72.2923 35.3494 72.1142 35.3494 71.8724C35.3494 71.5779 35.2458 71.3758 35.0391 71.2658C34.8365 71.1516 34.5372 71.0943 34.1409 71.0943C33.6964 71.0943 33.3815 71.2044 33.1965 71.424C33.0646 71.5868 32.9766 71.8064 32.9324 72.0834H31.1166C31.1562 71.4548 31.3323 70.9384 31.6448 70.5341C32.1422 69.9009 32.9962 69.5845 34.207 69.5845C34.9949 69.5845 35.6949 69.7407 36.3068 70.0528C36.9187 70.3646 37.2249 70.9537 37.2249 71.8197V75.1165C37.2249 75.345 37.2292 75.622 37.2379 75.947C37.2511 76.1932 37.2887 76.3603 37.3501 76.4482C37.4119 76.5361 37.5043 76.6087 37.6275 76.6658V76.9427H35.5806C35.5231 76.7977 35.4836 76.6614 35.4616 76.5341C35.4397 76.4064 35.4221 76.2614 35.4088 76.0989C35.1491 76.3802 34.8498 76.6197 34.5106 76.8174C34.1057 77.0505 33.6479 77.1669 33.1371 77.1669C32.4856 77.1669 31.9465 76.9822 31.5193 76.613C31.0967 76.2395 30.8855 75.7119 30.8855 75.0306C30.8855 74.147 31.2266 73.5076 31.9089 73.1119C32.283 72.8966 32.8334 72.7427 33.5599 72.6505L34.2004 72.5713ZM44.764 73.4482C44.6451 73.5228 44.5242 73.5845 44.4009 73.6329C44.282 73.6767 44.1169 73.7185 43.9057 73.758L43.4828 73.8372C43.0868 73.9076 42.8028 73.9934 42.6311 74.0943C42.3405 74.2658 42.1953 74.5318 42.1953 74.8923C42.1953 75.213 42.2833 75.4459 42.4594 75.5911C42.64 75.7318 42.8579 75.8021 43.1131 75.8021C43.5183 75.8021 43.8901 75.6834 44.2292 75.4459C44.5727 75.2087 44.7508 74.7756 44.764 74.147V73.4482ZM43.6217 72.5713C43.9695 72.5274 44.2182 72.4724 44.3678 72.4064C44.6365 72.2923 44.7707 72.1142 44.7707 71.8724C44.7707 71.5779 44.6671 71.3758 44.4604 71.2658C44.2578 71.1516 43.9585 71.0943 43.5622 71.0943C43.1177 71.0943 42.8028 71.2044 42.6178 71.424C42.4859 71.5868 42.3979 71.8064 42.3537 72.0834H40.5377C40.5775 71.4548 40.7536 70.9384 41.0662 70.5341C41.5635 69.9009 42.4175 69.5845 43.6283 69.5845C44.4163 69.5845 45.1162 69.7407 45.7281 70.0528C46.34 70.3646 46.6459 70.9537 46.6459 71.8197V75.1165C46.6459 75.345 46.6505 75.622 46.6592 75.947C46.6725 76.1932 46.71 76.3603 46.7715 76.4482C46.8332 76.5361 46.9256 76.6087 47.0488 76.6658V76.9427H45.0019C44.9445 76.7977 44.9049 76.6614 44.883 76.5341C44.861 76.4064 44.8434 76.2614 44.8301 76.0989C44.5704 76.3802 44.2711 76.6197 43.9319 76.8174C43.527 77.0505 43.0692 77.1669 42.5584 77.1669C41.9069 77.1669 41.3678 76.9822 40.9406 76.613C40.5181 76.2395 40.3068 75.7119 40.3068 75.0306C40.3068 74.147 40.6479 73.5076 41.3303 73.1119C41.7043 72.8966 42.2547 72.7427 42.9812 72.6505L43.6217 72.5713ZM52.8712 67.1251C52.9902 67.1251 53.0981 67.1297 53.1948 67.1384C53.2918 67.1427 53.4237 67.1516 53.5911 67.1649V68.6943C53.4854 68.6813 53.3071 68.6724 53.0562 68.6681C52.8097 68.6591 52.638 68.7142 52.5411 68.8329C52.4487 68.9473 52.4025 69.0747 52.4025 69.2153C52.4025 69.356 52.4025 69.5583 52.4025 69.8219H53.6373V71.147H52.4025V76.9427H50.527V71.147H49.477V69.8219H50.5071V69.3603C50.5071 68.5911 50.637 68.0614 50.8968 67.7712C51.1698 67.3407 51.8279 67.1251 52.8712 67.1251ZM58.5485 68.8989H56.6401V67.1649H58.5485V68.8989ZM56.6401 69.756H58.5485V76.9427H56.6401V69.756ZM62.2379 74.9779H64.2387V76.9427H62.2379V74.9779ZM72.227 72.3341C72.1918 72.0658 72.1017 71.824 71.9563 71.6087C71.745 71.3185 71.4171 71.1735 70.9724 71.1735C70.3385 71.1735 69.905 71.4879 69.6715 72.1165C69.5483 72.4505 69.4868 72.8943 69.4868 73.4482C69.4868 73.9756 69.5483 74.3998 69.6715 74.7208C69.896 75.3185 70.3186 75.6174 70.9394 75.6174C71.3796 75.6174 71.6922 75.4989 71.8772 75.2614C72.0619 75.024 72.1742 74.7165 72.2137 74.3384H74.1354C74.0915 74.9099 73.8846 75.4505 73.5148 75.9603C72.9249 76.7822 72.0509 77.1932 70.8932 77.1932C69.7353 77.1932 68.8835 76.8505 68.3377 76.1646C67.7917 75.479 67.5189 74.5888 67.5189 73.4943C67.5189 72.2591 67.8203 71.2989 68.4235 70.613C69.0267 69.9274 69.8585 69.5845 70.9195 69.5845C71.8221 69.5845 72.5595 69.7868 73.1318 70.1911C73.7085 70.5955 74.0497 71.3098 74.1553 72.3341H72.227ZM80.5787 75.6174C81.1288 75.6174 81.5516 75.4219 81.8466 75.0306C82.1416 74.6395 82.2888 74.0834 82.2888 73.3626C82.2888 72.6416 82.1416 72.0877 81.8466 71.7009C81.5516 71.3098 81.1288 71.1142 80.5787 71.1142C80.0283 71.1142 79.6034 71.3098 79.3041 71.7009C79.0091 72.0877 78.8616 72.6416 78.8616 73.3626C78.8616 74.0834 79.0091 74.6395 79.3041 75.0306C79.6034 75.4219 80.0283 75.6174 80.5787 75.6174ZM84.2633 73.3626C84.2633 74.4174 83.9596 75.3208 83.3521 76.0724C82.7445 76.8197 81.8223 77.1932 80.5853 77.1932C79.3482 77.1932 78.4258 76.8197 77.8182 76.0724C77.2109 75.3208 76.907 74.4174 76.907 73.3626C76.907 72.3251 77.2109 71.4263 77.8182 70.6658C78.4258 69.9055 79.3482 69.5251 80.5853 69.5251C81.8223 69.5251 82.7445 69.9055 83.3521 70.6658C83.9596 71.4263 84.2633 72.3251 84.2633 73.3626ZM95.5534 69.5977C95.8704 69.5977 96.1829 69.6591 96.4912 69.7825C96.7992 69.9055 97.0788 70.1208 97.3297 70.4286C97.5323 70.679 97.6688 70.9868 97.7392 71.3516C97.7831 71.5934 97.8053 71.947 97.8053 72.413L97.792 76.9427H95.8637V72.3669C95.8637 72.0943 95.8198 71.8701 95.7318 71.6943C95.5644 71.3603 95.2562 71.1934 94.8073 71.1934C94.2878 71.1934 93.929 71.4087 93.7308 71.8395C93.6297 72.0681 93.5789 72.3427 93.5789 72.6637V76.9427H91.6838V72.6637C91.6838 72.2372 91.6397 71.9274 91.5516 71.7341C91.3932 71.3868 91.0829 71.213 90.6205 71.213C90.0837 71.213 89.7226 71.3868 89.5376 71.7341C89.4363 71.9318 89.3858 72.2263 89.3858 72.6174V76.9427H87.4774V69.7692H89.3067V70.8174C89.5399 70.4439 89.7601 70.1779 89.9668 70.0197C90.3322 69.7384 90.8055 69.5977 91.3866 69.5977C91.9369 69.5977 92.3814 69.7185 92.7206 69.9603C92.9936 70.1845 93.2003 70.4724 93.3414 70.824C93.5879 70.4021 93.8938 70.0923 94.2592 69.8943C94.6466 69.6966 95.0781 69.5977 95.5534 69.5977Z" fill="#00568A"/>
</svg>
