<svg width="158" height="128" viewBox="0 0 158 128" fill="none" xmlns="http://www.w3.org/2000/svg">
<path d="M104.968 57.7825L98.9581 76.0062C98.9581 76.0062 107.862 73.1168 116.542 61.1158L108.752 56.4491C107.416 55.56 105.636 56.2265 104.968 57.7825Z" fill="#00568A"/>
<path d="M72.9163 51.782C73.5838 51.782 74.0292 51.782 74.6967 51.3372C77.5906 49.1152 90.2775 39.5586 94.2842 31.7802C98.7356 22.6683 100.516 10.8895 99.181 6.88916C99.181 6.88916 79.5935 14.0009 67.1291 36.6695C67.1291 36.8917 66.2386 50.8929 72.9163 51.782Z" fill="#00568A"/>
<path d="M85.8254 94.0076C83.822 94.452 81.8191 94.452 79.8157 94.452C58.0027 94.452 40.4186 73.3393 40.4186 47.337C40.4186 24.6684 53.551 5.77792 71.3576 1.11084C67.7963 6.88912 54.8864 24.0017 58.8927 55.7821C62.4541 84.8956 82.4866 92.8964 85.8254 94.0076Z" fill="#595A5A"/>
<path d="M116.765 63.3387C112.091 79.1178 100.517 91.1188 86.2713 94.0078C83.155 92.8965 63.1225 84.8961 59.3386 56.0044C59.5611 58.0047 63.7904 78.4509 87.6067 79.7843C101.63 80.4512 112.536 68.8945 116.765 63.3387Z" fill="#00B8AF"/>
<path d="M98.9574 6.00051C94.5056 7.77845 67.7958 20.0017 59.3377 54.8937C58.8923 51.1156 58.6698 47.3376 58.6698 44.0039C58.6698 19.7795 68.6859 6.00051 71.8022 0.888964C74.4731 0.222241 76.9215 0 79.8153 0C86.715 0 93.1701 2.22241 98.9574 6.00051Z" fill="#00B8AF"/>
<path d="M5.94839 113.783C5.25107 113.783 4.70873 114.001 4.32132 114.437C3.94095 114.873 3.70146 115.463 3.60285 116.209H8.28341C8.23409 115.414 7.99109 114.813 7.55436 114.405C7.1247 113.99 6.58938 113.783 5.94839 113.783ZM5.94839 111.304C6.90636 111.304 7.76919 111.483 8.53698 111.841C9.30473 112.2 9.93865 112.766 10.4388 113.54C10.8895 114.222 11.1819 115.013 11.3157 115.914C11.3932 116.441 11.4249 117.201 11.4108 118.192H3.52889C3.57116 119.346 3.93391 120.154 4.61715 120.619C5.03273 120.907 5.53282 121.051 6.11746 121.051C6.73729 121.051 7.24093 120.875 7.62834 120.524C7.83962 120.334 8.02628 120.07 8.18832 119.733H11.2629C11.1854 120.415 10.8297 121.108 10.1957 121.811C9.20965 122.929 7.82908 123.488 6.05405 123.488C4.58898 123.488 3.29645 123.017 2.1765 122.074C1.05656 121.132 0.496582 119.599 0.496582 117.475C0.496582 115.484 1.00021 113.958 2.00745 112.896C3.02175 111.834 4.33541 111.304 5.94839 111.304ZM19.0784 118.308C19.177 119.019 19.3707 119.55 19.6595 119.901C20.1878 120.541 21.0929 120.861 22.3749 120.861C23.1426 120.861 23.766 120.777 24.245 120.608C25.1536 120.284 25.6079 119.683 25.6079 118.804C25.6079 118.291 25.3825 117.893 24.9317 117.612C24.4809 117.338 23.773 117.095 22.8081 116.884L21.1598 116.515C19.5398 116.149 18.4198 115.752 17.8 115.323C16.7505 114.606 16.2257 113.484 16.2257 111.958C16.2257 110.565 16.7329 109.408 17.7472 108.487C18.7615 107.566 20.2512 107.105 22.2164 107.105C23.8576 107.105 25.2558 107.541 26.4109 108.413C27.5731 109.278 28.1824 110.537 28.2388 112.19H25.1113C25.055 111.254 24.6465 110.59 23.8858 110.196C23.3786 109.936 22.7482 109.806 21.9945 109.806C21.1563 109.806 20.4872 109.974 19.987 110.312C19.487 110.649 19.2369 111.121 19.2369 111.726C19.2369 112.281 19.4834 112.696 19.9765 112.97C20.2934 113.153 20.9697 113.368 22.0051 113.614L24.6887 114.257C25.865 114.539 26.7525 114.915 27.3512 115.386C28.281 116.118 28.7459 117.176 28.7459 118.561C28.7459 119.982 28.2 121.164 27.1082 122.106C26.0235 123.041 24.488 123.509 22.5016 123.509C20.4731 123.509 18.8777 123.048 17.7155 122.127C16.5533 121.199 15.9722 119.926 15.9722 118.308H19.0784ZM40.2911 111.314C41.0024 111.314 41.6471 111.437 42.2244 111.683C42.809 111.929 43.2883 112.306 43.6615 112.812C43.9783 113.241 44.1722 113.684 44.2424 114.141C44.3131 114.591 44.3482 115.33 44.3482 116.357V123.108H41.2735V116.114C41.2735 115.495 41.1682 114.996 40.9567 114.616C40.682 114.081 40.1608 113.814 39.393 113.814C38.5971 113.814 37.9913 114.081 37.5757 114.616C37.1672 115.143 36.9629 115.899 36.9629 116.884V123.108H33.9623V107.611H36.9629V113.108C37.3997 112.439 37.9033 111.975 38.4738 111.715C39.0514 111.448 39.6571 111.314 40.2911 111.314ZM56.5485 117.517C56.3582 117.636 56.1647 117.735 55.9675 117.813C55.7773 117.883 55.5131 117.95 55.1751 118.013L54.499 118.139C53.8649 118.252 53.4105 118.389 53.1358 118.551C52.6707 118.825 52.4384 119.251 52.4384 119.828C52.4384 120.341 52.5793 120.713 52.861 120.946C53.1501 121.171 53.4987 121.283 53.907 121.283C54.5553 121.283 55.1502 121.093 55.6928 120.713C56.2423 120.334 56.5273 119.641 56.5485 118.635V117.517ZM54.7207 116.114C55.2771 116.044 55.6752 115.956 55.9144 115.85C56.3444 115.668 56.5591 115.383 56.5591 114.996C56.5591 114.524 56.3933 114.201 56.0626 114.025C55.7385 113.843 55.2596 113.751 54.6255 113.751C53.9143 113.751 53.4105 113.927 53.1145 114.278C52.9035 114.539 52.7626 114.89 52.692 115.333H49.7867C49.85 114.328 50.1317 113.501 50.6319 112.854C51.4276 111.841 52.794 111.335 54.7313 111.335C55.992 111.335 57.1119 111.585 58.0909 112.084C59.07 112.583 59.5599 113.526 59.5599 114.911V120.186C59.5599 120.552 59.5668 120.995 59.5807 121.515C59.6019 121.909 59.6619 122.176 59.7603 122.317C59.8591 122.458 60.0069 122.574 60.2041 122.665V123.108H56.929C56.8371 122.876 56.7738 122.658 56.7387 122.454C56.7036 122.25 56.6755 122.018 56.6542 121.758C56.2386 122.208 55.7597 122.591 55.2171 122.908C54.5692 123.281 53.8368 123.467 53.0194 123.467C51.9771 123.467 51.1144 123.171 50.431 122.581C49.7549 121.983 49.4168 121.139 49.4168 120.049C49.4168 118.635 49.9627 117.612 51.0544 116.979C51.6529 116.634 52.5336 116.388 53.6959 116.241L54.7207 116.114ZM71.6226 117.517C71.4323 117.636 71.2388 117.735 71.0416 117.813C70.8514 117.883 70.5872 117.95 70.2492 118.013L69.5727 118.139C68.939 118.252 68.4846 118.389 68.2099 118.551C67.7448 118.825 67.5125 119.251 67.5125 119.828C67.5125 120.341 67.6534 120.713 67.9351 120.946C68.2242 121.171 68.5728 121.283 68.9811 121.283C69.6294 121.283 70.2243 121.093 70.7669 120.713C71.3164 120.334 71.6013 119.641 71.6226 118.635V117.517ZM69.7948 116.114C70.3512 116.044 70.7493 115.956 70.9885 115.85C71.4184 115.668 71.6332 115.383 71.6332 114.996C71.6332 114.524 71.4674 114.201 71.1367 114.025C70.8126 113.843 70.3337 113.751 69.6996 113.751C68.9884 113.751 68.4846 113.927 68.1886 114.278C67.9776 114.539 67.8367 114.89 67.7661 115.333H64.8604C64.9241 114.328 65.2058 113.501 65.706 112.854C66.5017 111.841 67.8681 111.335 69.8054 111.335C71.0661 111.335 72.186 111.585 73.165 112.084C74.1441 112.583 74.6336 113.526 74.6336 114.911V120.186C74.6336 120.552 74.6409 120.995 74.6548 121.515C74.676 121.909 74.736 122.176 74.8344 122.317C74.9332 122.458 75.081 122.574 75.2782 122.665V123.108H72.0031C71.9112 122.876 71.8479 122.658 71.8128 122.454C71.7777 122.25 71.7495 122.018 71.7283 121.758C71.3127 122.208 70.8338 122.591 70.2912 122.908C69.6433 123.281 68.9109 123.467 68.0935 123.467C67.0512 123.467 66.1885 123.171 65.5051 122.581C64.829 121.983 64.4909 121.139 64.4909 120.049C64.4909 118.635 65.0368 117.612 66.1285 116.979C66.727 116.634 67.6077 116.388 68.77 116.241L69.7948 116.114ZM84.5941 107.4C84.7843 107.4 84.957 107.407 85.1118 107.421C85.2669 107.428 85.478 107.443 85.7458 107.464V109.911C85.5768 109.89 85.2914 109.876 84.8901 109.869C84.4957 109.855 84.2209 109.943 84.0658 110.133C83.918 110.316 83.8441 110.519 83.8441 110.744C83.8441 110.969 83.8441 111.293 83.8441 111.715H85.8197V113.835H83.8441V123.108H80.8433V113.835H79.1633V111.715H80.8115V110.976C80.8115 109.746 81.0193 108.898 81.4349 108.434C81.8718 107.745 82.9247 107.4 84.5941 107.4ZM93.6777 110.238H90.6242V107.464H93.6777V110.238ZM90.6242 111.609H93.6777V123.108H90.6242V111.609ZM99.5808 119.964H102.782V123.108H99.5808V119.964ZM115.563 115.734C115.507 115.305 115.363 114.918 115.13 114.574C114.792 114.11 114.267 113.878 113.556 113.878C112.542 113.878 111.848 114.381 111.475 115.386C111.277 115.921 111.179 116.631 111.179 117.517C111.179 118.361 111.277 119.04 111.475 119.553C111.834 120.51 112.51 120.988 113.503 120.988C114.207 120.988 114.708 120.798 115.004 120.418C115.299 120.038 115.479 119.546 115.542 118.941H118.617C118.547 119.856 118.215 120.721 117.624 121.536C116.68 122.851 115.282 123.509 113.429 123.509C111.577 123.509 110.214 122.961 109.34 121.863C108.467 120.766 108.03 119.342 108.03 117.591C108.03 115.615 108.513 114.078 109.478 112.981C110.443 111.884 111.774 111.335 113.471 111.335C114.915 111.335 116.095 111.659 117.011 112.306C117.934 112.953 118.48 114.096 118.649 115.734H115.563ZM128.926 120.988C129.806 120.988 130.483 120.675 130.955 120.049C131.427 119.423 131.662 118.533 131.662 117.38C131.662 116.226 131.427 115.34 130.955 114.721C130.483 114.096 129.806 113.783 128.926 113.783C128.045 113.783 127.366 114.096 126.887 114.721C126.415 115.34 126.179 116.226 126.179 117.38C126.179 118.533 126.415 119.423 126.887 120.049C127.366 120.675 128.045 120.988 128.926 120.988ZM134.821 117.38C134.821 119.068 134.336 120.513 133.363 121.716C132.391 122.911 130.916 123.509 128.937 123.509C126.957 123.509 125.481 122.911 124.509 121.716C123.538 120.513 123.051 119.068 123.051 117.38C123.051 115.72 123.538 114.282 124.509 113.065C125.481 111.849 126.957 111.24 128.937 111.24C130.916 111.24 132.391 111.849 133.363 113.065C134.336 114.282 134.821 115.72 134.821 117.38ZM152.886 111.356C153.393 111.356 153.893 111.455 154.386 111.652C154.879 111.849 155.326 112.193 155.728 112.686C156.052 113.086 156.27 113.579 156.383 114.163C156.453 114.549 156.489 115.115 156.489 115.861L156.467 123.108H153.382V115.787C153.382 115.351 153.312 114.992 153.171 114.711C152.903 114.176 152.41 113.909 151.692 113.909C150.861 113.909 150.287 114.254 149.969 114.943C149.808 115.309 149.726 115.748 149.726 116.262V123.108H146.694V116.262C146.694 115.579 146.624 115.084 146.483 114.774C146.229 114.219 145.733 113.941 144.993 113.941C144.134 113.941 143.556 114.219 143.26 114.774C143.098 115.091 143.017 115.562 143.017 116.188V123.108H139.964V111.631H142.891V113.308C143.264 112.71 143.616 112.284 143.947 112.031C144.532 111.581 145.289 111.356 146.219 111.356C147.099 111.356 147.81 111.55 148.353 111.936C148.79 112.295 149.121 112.756 149.346 113.318C149.741 112.643 150.23 112.148 150.815 111.831C151.435 111.514 152.125 111.356 152.886 111.356Z" fill="#00568A"/>
</svg>
